<?xml version="1.0" standalone="no"?>
<!DOCTYPE svg PUBLIC "-//W3C//DTD SVG 20010904//EN"
 "http://www.w3.org/TR/2001/REC-SVG-20010904/DTD/svg10.dtd">
<svg version="1.0" xmlns="http://www.w3.org/2000/svg"
 width="225.000000pt" height="225.000000pt" viewBox="0 0 225.000000 225.000000"
 preserveAspectRatio="xMidYMid meet">

<g transform="translate(0.000000,225.000000) scale(0.100000,-0.100000)"
fill="#000000" stroke="none">
<path d="M620 2213 c-39 -15 -60 -47 -60 -90 0 -60 33 -93 90 -93 84 0 131 93
78 155 -23 26 -78 40 -108 28z m58 -49 c34 -24 27 -75 -12 -89 -24 -8 -31 -6
-47 14 -24 30 -24 46 1 71 24 24 29 24 58 4z"/>
<path d="M135 2191 c-45 -27 -63 -52 -74 -101 -6 -25 -11 -48 -11 -52 0 -5 36
-8 80 -8 l80 0 0 90 c0 87 -1 90 -22 90 -13 0 -36 -8 -53 -19z"/>
<path d="M370 2120 l0 -90 48 0 c27 0 57 7 70 16 22 15 30 58 12 69 -5 3 -7
19 -3 35 8 45 -10 60 -73 60 l-54 0 0 -90z m90 40 c0 -5 -9 -10 -20 -10 -11 0
-20 5 -20 10 0 6 9 10 20 10 11 0 20 -4 20 -10z m-11 -59 c16 -10 6 -31 -15
-31 -8 0 -14 9 -14 20 0 22 7 25 29 11z"/>
<path d="M800 2120 c0 -89 0 -90 24 -90 21 0 25 5 28 38 l3 37 20 -37 c15 -31
24 -38 48 -38 l29 0 -21 36 c-19 32 -20 37 -6 57 35 50 4 87 -73 87 l-52 0 0
-90z m88 38 c-7 -19 -38 -22 -38 -4 0 10 9 16 21 16 12 0 19 -5 17 -12z"/>
<path d="M990 2120 l0 -90 48 0 c64 0 109 28 117 73 13 69 -25 106 -107 107
l-58 0 0 -90z m108 38 c19 -19 14 -55 -10 -72 -38 -27 -48 -20 -48 34 0 46 2
50 23 50 13 0 28 -5 35 -12z"/>
<path d="M1210 2120 l0 -90 65 0 c58 0 65 2 65 20 0 17 -7 20 -40 20 -32 0
-40 4 -40 18 0 15 6 17 35 14 32 -4 35 -2 35 22 0 23 -4 26 -35 26 -19 0 -35
5 -35 10 0 6 18 10 40 10 33 0 40 3 40 20 0 18 -7 20 -65 20 l-65 0 0 -90z"/>
<path d="M1423 2157 c-12 -28 -29 -69 -37 -89 l-16 -38 26 0 c17 0 28 6 31 20
4 15 14 20 38 20 25 0 35 -5 40 -20 4 -13 15 -20 31 -20 13 0 24 3 24 6 0 3
-16 43 -36 90 -29 68 -40 84 -58 84 -16 0 -26 -12 -43 -53z m51 -32 c3 -8 1
-15 -4 -15 -6 0 -10 7 -10 15 0 8 2 15 4 15 2 0 6 -7 10 -15z"/>
<path d="M1600 2137 c0 -86 14 -107 72 -107 53 0 72 27 76 111 4 68 4 69 -21
69 -25 0 -26 -2 -29 -67 -3 -65 -4 -68 -28 -68 -24 0 -25 3 -28 68 -3 59 -5
67 -22 67 -18 0 -20 -7 -20 -73z"/>
<path d="M1796 2198 c4 -7 16 -25 26 -41 l20 -27 -31 -50 -31 -50 28 0 c20 0
33 7 42 25 7 14 16 25 20 25 4 0 13 -11 20 -25 10 -18 22 -25 43 -25 29 0 29
0 13 25 -52 81 -50 72 -29 102 36 52 36 53 4 53 -22 0 -31 -6 -37 -22 l-7 -22
-17 22 c-20 24 -77 32 -64 10z"/>
<path d="M52 1503 l3 -428 78 -3 77 -3 0 431 0 430 -80 0 -80 0 2 -427z"/>
<path d="M418 1915 c-57 -32 -58 -39 -58 -460 l0 -386 78 3 77 3 3 318 c1 174
5 317 7 317 3 0 54 -35 113 -78 59 -43 149 -109 200 -145 l92 -67 0 99 0 100
-210 151 c-221 159 -251 174 -302 145z"/>
<path d="M1000 1610 c0 -176 -3 -320 -6 -320 -3 0 -92 62 -198 138 -105 77
-197 142 -203 146 -10 6 -13 -15 -13 -91 l1 -98 201 -145 c110 -80 215 -150
232 -156 39 -15 84 -2 114 31 l22 26 0 395 0 394 -75 0 -75 0 0 -320z"/>
<path d="M1421 1923 c-14 -2 -35 -12 -48 -20 -52 -34 -53 -43 -53 -453 l0
-380 80 0 80 0 0 350 0 350 123 0 c104 0 127 -3 155 -20 39 -24 52 -54 52
-119 0 -90 -57 -131 -185 -131 l-75 0 0 -76 0 -77 108 6 c132 6 191 26 248 83
56 55 78 128 72 228 -5 80 -24 124 -76 179 -60 62 -121 78 -302 82 -85 2 -166
1 -179 -2z"/>
<path d="M50 465 l0 -426 138 3 137 3 3 47 3 47 -83 3 -83 3 -3 137 -3 138 76
0 75 0 0 50 0 50 -75 0 -75 0 0 135 0 134 83 3 82 3 3 48 3 47 -140 0 -141 0
0 -425z"/>
<path d="M494 689 c-46 -13 -91 -69 -99 -121 -3 -24 -5 -151 -3 -283 l3 -240
53 -3 52 -3 0 258 c0 218 2 262 16 281 19 27 48 28 74 2 19 -19 20 -33 20
-281 l0 -260 53 3 52 3 3 240 c1 141 -2 261 -8 291 -20 97 -110 144 -216 113z"/>
<path d="M883 680 c-62 -28 -83 -68 -83 -159 0 -95 17 -122 118 -187 40 -26
77 -55 82 -65 17 -32 12 -97 -10 -119 -42 -42 -80 -13 -80 61 l0 49 -55 0 -55
0 0 -62 c0 -96 37 -143 127 -162 40 -9 111 10 142 37 66 61 68 208 4 279 -9
10 -39 32 -67 48 -87 50 -97 63 -94 128 3 51 6 57 30 66 42 15 68 -14 68 -76
l0 -48 55 0 55 0 0 53 c-1 77 -28 129 -82 156 -54 26 -100 26 -155 1z"/>
<path d="M1282 679 c-76 -38 -82 -62 -82 -315 0 -201 1 -219 21 -254 40 -71
131 -98 212 -62 63 28 87 69 87 150 l0 62 -55 0 -55 0 0 -49 c0 -73 -44 -106
-83 -63 -15 16 -17 47 -17 219 0 181 2 201 18 216 43 39 82 9 82 -64 l0 -49
55 0 55 0 0 63 c0 78 -24 121 -83 147 -55 25 -102 25 -155 -1z"/>
</g>
</svg>
